<?xml version="1.0" encoding="UTF-8"?>
<svg xmlns="http://www.w3.org/2000/svg" width="720" height="260" viewBox="0 0 720 260" class="h-auto w-full" preserveAspectRatio="xMidYMid meet" role="img" aria-label="Strand-split small-RNA size profile, dominant peak at 21 nt"><rect x="0" y="0" width="720" height="260" fill="#0a1a18"/><rect x="213.7142857142857" y="8" width="32.95238095238095" height="224" fill="rgba(94,201,98,0.08)" rx="3"></rect><line x1="16" x2="708" y1="128" y2="128" stroke="rgba(94,201,98,0.30)" stroke-width="1"></line><g opacity="1" style="transition:opacity 120ms"></g><g opacity="1" style="transition:opacity 120ms"><rect x="154.39999999999998" y="127.90040650406505" width="19.77142857142857" height="0.09959349593495936" rx="1.5" fill="#21918c"></rect><rect x="154.39999999999998" y="128" width="19.77142857142857" height="0.14939024390243902" rx="1.5" fill="#3b528b"></rect><text x="164.28571428571425" y="241" text-anchor="middle" font-size="10" font-family="'JetBrains Mono', ui-monospace, SFMono-Regular, Menlo, monospace" font-weight="400" fill="rgba(236,226,200,0.55)">19</text></g><g opacity="1" style="transition:opacity 120ms"><rect x="187.35238095238094" y="125.21138211382114" width="19.77142857142857" height="2.7886178861788617" rx="1.5" fill="#21918c"></rect><rect x="187.35238095238094" y="128" width="19.77142857142857" height="0.9461382113821138" rx="1.5" fill="#3b528b"></rect></g><g opacity="1" style="transition:opacity 120ms"><rect x="220.30476190476188" y="30" width="19.77142857142857" height="98" rx="1.5" fill="#5ec962"></rect><rect x="220.30476190476188" y="128" width="19.77142857142857" height="65.1839430894309" rx="1.5" fill="#fde725"></rect><text x="230.19047619047615" y="241" text-anchor="middle" font-size="11" font-family="'JetBrains Mono', ui-monospace, SFMono-Regular, Menlo, monospace" font-weight="700" fill="#5ec962">21</text></g><g opacity="1" style="transition:opacity 120ms"><rect x="253.2571428571428" y="116.44715447154472" width="19.77142857142857" height="11.552845528455284" rx="1.5" fill="#21918c"></rect><rect x="253.2571428571428" y="128" width="19.77142857142857" height="2.888211382113821" rx="1.5" fill="#3b528b"></rect></g><g opacity="1" style="transition:opacity 120ms"><rect x="286.2095238095238" y="120.4308943089431" width="19.77142857142857" height="7.569105691056911" rx="1.5" fill="#21918c"></rect><rect x="286.2095238095238" y="128" width="19.77142857142857" height="0.9959349593495934" rx="1.5" fill="#3b528b"></rect><text x="296.0952380952381" y="241" text-anchor="middle" font-size="10" font-family="'JetBrains Mono', ui-monospace, SFMono-Regular, Menlo, monospace" font-weight="400" fill="rgba(236,226,200,0.55)">23</text></g><g opacity="1" style="transition:opacity 120ms"><rect x="319.16190476190474" y="120.28150406504065" width="19.77142857142857" height="7.71849593495935" rx="1.5" fill="#21918c"></rect><rect x="319.16190476190474" y="128" width="19.77142857142857" height="1.0955284552845528" rx="1.5" fill="#3b528b"></rect></g><g opacity="1" style="transition:opacity 120ms"><rect x="352.1142857142857" y="119.33536585365854" width="19.77142857142857" height="8.664634146341463" rx="1.5" fill="#21918c"></rect><rect x="352.1142857142857" y="128" width="19.77142857142857" height="0.39837398373983746" rx="1.5" fill="#3b528b"></rect><text x="362" y="241" text-anchor="middle" font-size="10" font-family="'JetBrains Mono', ui-monospace, SFMono-Regular, Menlo, monospace" font-weight="400" fill="rgba(236,226,200,0.55)">25</text></g><g opacity="1" style="transition:opacity 120ms"><rect x="385.0666666666666" y="119.98272357723577" width="19.77142857142857" height="8.017276422764228" rx="1.5" fill="#21918c"></rect><rect x="385.0666666666666" y="128" width="19.77142857142857" height="0.448170731707317" rx="1.5" fill="#3b528b"></rect></g><g opacity="1" style="transition:opacity 120ms"><rect x="418.01904761904757" y="109.32621951219512" width="19.77142857142857" height="18.67378048780488" rx="1.5" fill="#21918c"></rect><rect x="418.01904761904757" y="128" width="19.77142857142857" height="0.7469512195121951" rx="1.5" fill="#3b528b"></rect><text x="427.90476190476187" y="241" text-anchor="middle" font-size="10" font-family="'JetBrains Mono', ui-monospace, SFMono-Regular, Menlo, monospace" font-weight="400" fill="rgba(236,226,200,0.55)">27</text></g><g opacity="1" style="transition:opacity 120ms"><rect x="450.97142857142853" y="119.23577235772358" width="19.77142857142857" height="8.764227642276422" rx="1.5" fill="#21918c"></rect><rect x="450.97142857142853" y="128" width="19.77142857142857" height="0.448170731707317" rx="1.5" fill="#3b528b"></rect></g><g opacity="1" style="transition:opacity 120ms"><rect x="483.92380952380944" y="117.89126016260163" width="19.77142857142857" height="10.108739837398375" rx="1.5" fill="#21918c"></rect><rect x="483.92380952380944" y="128" width="19.77142857142857" height="0.24898373983739835" rx="1.5" fill="#3b528b"></rect><text x="493.80952380952374" y="241" text-anchor="middle" font-size="10" font-family="'JetBrains Mono', ui-monospace, SFMono-Regular, Menlo, monospace" font-weight="400" fill="rgba(236,226,200,0.55)">29</text></g><g opacity="1" style="transition:opacity 120ms"><rect x="516.8761904761905" y="125.65955284552845" width="19.77142857142857" height="2.340447154471545" rx="1.5" fill="#21918c"></rect><rect x="516.8761904761905" y="128" width="19.77142857142857" height="0.19918699186991873" rx="1.5" fill="#3b528b"></rect></g><g opacity="1" style="transition:opacity 120ms"><rect x="549.8285714285714" y="127.30284552845528" width="19.77142857142857" height="0.6971544715447154" rx="1.5" fill="#21918c"></rect><rect x="549.8285714285714" y="128" width="19.77142857142857" height="0.14939024390243902" rx="1.5" fill="#3b528b"></rect><text x="559.7142857142857" y="241" text-anchor="middle" font-size="10" font-family="'JetBrains Mono', ui-monospace, SFMono-Regular, Menlo, monospace" font-weight="400" fill="rgba(236,226,200,0.55)">31</text></g><g opacity="1" style="transition:opacity 120ms"><rect x="582.7809523809524" y="127.45223577235772" width="19.77142857142857" height="0.5477642276422764" rx="1.5" fill="#21918c"></rect><rect x="582.7809523809524" y="128" width="19.77142857142857" height="0.19918699186991873" rx="1.5" fill="#3b528b"></rect></g><g opacity="1" style="transition:opacity 120ms"><rect x="615.7333333333333" y="127.65142276422765" width="19.77142857142857" height="0.3485772357723577" rx="1.5" fill="#21918c"></rect><rect x="615.7333333333333" y="128" width="19.77142857142857" height="0.04979674796747968" rx="1.5" fill="#3b528b"></rect><text x="625.6190476190476" y="241" text-anchor="middle" font-size="10" font-family="'JetBrains Mono', ui-monospace, SFMono-Regular, Menlo, monospace" font-weight="400" fill="rgba(236,226,200,0.55)">33</text></g><g opacity="1" style="transition:opacity 120ms"><rect x="648.6857142857143" y="127.80081300813008" width="19.77142857142857" height="0.19918699186991873" rx="1.5" fill="#21918c"></rect></g><g opacity="1" style="transition:opacity 120ms"><rect x="681.6380952380953" y="127.70121951219512" width="19.77142857142857" height="0.29878048780487804" rx="1.5" fill="#21918c"></rect><text x="691.5238095238095" y="241" text-anchor="middle" font-size="10" font-family="'JetBrains Mono', ui-monospace, SFMono-Regular, Menlo, monospace" font-weight="400" fill="rgba(236,226,200,0.55)">35</text></g><rect x="114.85714285714285" y="8" width="32.95238095238095" height="218" fill="transparent" style="cursor:pointer"></rect><rect x="147.8095238095238" y="8" width="32.95238095238095" height="218" fill="transparent" style="cursor:pointer"></rect><rect x="180.76190476190476" y="8" width="32.95238095238095" height="218" fill="transparent" style="cursor:pointer"></rect><rect x="213.7142857142857" y="8" width="32.95238095238095" height="218" fill="transparent" style="cursor:pointer"></rect><rect x="246.66666666666663" y="8" width="32.95238095238095" height="218" fill="transparent" style="cursor:pointer"></rect><rect x="279.6190476190476" y="8" width="32.95238095238095" height="218" fill="transparent" style="cursor:pointer"></rect><rect x="312.57142857142856" y="8" width="32.95238095238095" height="218" fill="transparent" style="cursor:pointer"></rect><rect x="345.5238095238095" y="8" width="32.95238095238095" height="218" fill="transparent" style="cursor:pointer"></rect><rect x="378.4761904761904" y="8" width="32.95238095238095" height="218" fill="transparent" style="cursor:pointer"></rect><rect x="411.4285714285714" y="8" width="32.95238095238095" height="218" fill="transparent" style="cursor:pointer"></rect><rect x="444.38095238095235" y="8" width="32.95238095238095" height="218" fill="transparent" style="cursor:pointer"></rect><rect x="477.33333333333326" y="8" width="32.95238095238095" height="218" fill="transparent" style="cursor:pointer"></rect><rect x="510.2857142857142" y="8" width="32.95238095238095" height="218" fill="transparent" style="cursor:pointer"></rect><rect x="543.2380952380952" y="8" width="32.95238095238095" height="218" fill="transparent" style="cursor:pointer"></rect><rect x="576.1904761904761" y="8" width="32.95238095238095" height="218" fill="transparent" style="cursor:pointer"></rect><rect x="609.1428571428571" y="8" width="32.95238095238095" height="218" fill="transparent" style="cursor:pointer"></rect><rect x="642.0952380952381" y="8" width="32.95238095238095" height="218" fill="transparent" style="cursor:pointer"></rect><rect x="675.047619047619" y="8" width="32.95238095238095" height="218" fill="transparent" style="cursor:pointer"></rect><text x="230.19047619047615" y="22" text-anchor="middle" font-size="11" font-family="'JetBrains Mono', ui-monospace, SFMono-Regular, Menlo, monospace" font-weight="700" fill="#5ec962">21 nt</text><text x="18" y="32" font-size="10" font-family="'JetBrains Mono', ui-monospace, SFMono-Regular, Menlo, monospace" fill="#5ec962">sense (+)</text><text x="18" y="222" font-size="10" font-family="'JetBrains Mono', ui-monospace, SFMono-Regular, Menlo, monospace" fill="#a8b9e8">antisense (−)</text><text x="362" y="258" text-anchor="middle" font-size="10" font-family="'JetBrains Mono', ui-monospace, SFMono-Regular, Menlo, monospace" fill="rgba(236,226,200,0.55)">small RNA length (nt)</text></svg>
